<?xml version="1.0" encoding="UTF-8" standalone="no"?>
<!-- Created with Inkscape (http://www.inkscape.org/) -->

<svg
   xmlns:dc="http://purl.org/dc/elements/1.1/"
   xmlns:cc="http://creativecommons.org/ns#"
   xmlns:rdf="http://www.w3.org/1999/02/22-rdf-syntax-ns#"
   xmlns:svg="http://www.w3.org/2000/svg"
   xmlns="http://www.w3.org/2000/svg"
   xmlns:sodipodi="http://sodipodi.sourceforge.net/DTD/sodipodi-0.dtd"
   xmlns:inkscape="http://www.inkscape.org/namespaces/inkscape"
   width="32.481255mm"
   height="5.811017mm"
   viewBox="0 0 32.481255 5.811017"
   version="1.1"
   id="svg992"
   sodipodi:docname="nullsum_logo.svg"
   inkscape:version="0.92.2 5c3e80d, 2017-08-06"
   inkscape:export-filename="/home/draje/bitmap.png"
   inkscape:export-xdpi="351.89999"
   inkscape:export-ydpi="351.89999">
  <defs
     id="defs986">
    <inkscape:path-effect
       effect="mirror_symmetry"
       start_point="39.73604,71.042167"
       end_point="40.574674,71.040183"
       center_point="40.155357,71.041175"
       id="path-effect2736"
       is_visible="true"
       mode="free"
       discard_orig_path="false"
       fuse_paths="false"
       oposite_fuse="false" />
    <inkscape:path-effect
       effect="mirror_symmetry"
       start_point="40.175289,68.152401"
       end_point="40.175289,71.041174"
       center_point="40.175289,69.596788"
       id="path-effect2734"
       is_visible="true"
       mode="free"
       discard_orig_path="false"
       fuse_paths="false"
       oposite_fuse="false" />
    <inkscape:path-effect
       effect="mirror_symmetry"
       start_point="37.931131,71.042167"
       end_point="38.769765,71.040183"
       center_point="38.350448,71.041175"
       id="path-effect1894"
       is_visible="true"
       mode="free"
       discard_orig_path="false"
       fuse_paths="false"
       oposite_fuse="false" />
    <inkscape:path-effect
       effect="mirror_symmetry"
       start_point="38.37038,68.152401"
       end_point="38.37038,71.041174"
       center_point="38.37038,69.596788"
       id="path-effect1878"
       is_visible="true"
       mode="free"
       discard_orig_path="false"
       fuse_paths="false"
       oposite_fuse="false" />
    <inkscape:path-effect
       effect="mirror_symmetry"
       start_point="29.588061,68.152401"
       end_point="29.588061,73.929827"
       center_point="29.588061,71.041114"
       id="path-effect1573-7-6"
       is_visible="true"
       mode="free"
       discard_orig_path="false"
       fuse_paths="false"
       oposite_fuse="false" />
    <inkscape:path-effect
       effect="mirror_symmetry"
       start_point="48.968099,73.929827"
       end_point="48.968099,68.152401"
       center_point="48.968099,71.041114"
       id="path-effect1573-7-3"
       is_visible="true"
       mode="free"
       discard_orig_path="false"
       fuse_paths="false"
       oposite_fuse="false" />
    <inkscape:path-effect
       effect="mirror_symmetry"
       start_point="54.097842,68.081524"
       end_point="54.097842,73.85895"
       center_point="54.097842,70.970237"
       id="path-effect1573-7-6-06"
       is_visible="true"
       mode="free"
       discard_orig_path="false"
       fuse_paths="false"
       oposite_fuse="false" />
    <inkscape:path-effect
       effect="mirror_symmetry"
       start_point="57.56016,68.115115"
       end_point="57.56016,73.892541"
       center_point="57.56016,71.003828"
       id="path-effect1573-7-6-5"
       is_visible="true"
       mode="free"
       discard_orig_path="false"
       fuse_paths="false"
       oposite_fuse="false" />
    <inkscape:path-effect
       effect="mirror_symmetry"
       start_point="34.844801,73.929827"
       end_point="34.844801,68.152401"
       center_point="34.844801,71.041114"
       id="path-effect1573-7-6-6"
       is_visible="true"
       mode="free"
       discard_orig_path="false"
       fuse_paths="false"
       oposite_fuse="false" />
    <inkscape:path-effect
       effect="copy_rotate"
       starting_point="45.863255,71.041111"
       origin="43.711359,71.041111"
       id="path-effect2939-8"
       is_visible="true"
       copies_to_360="true"
       fuse_paths="false"
       starting_angle="0"
       rotation_angle="180"
       num_copies="2" />
  </defs>
  <sodipodi:namedview
     id="base"
     pagecolor="#ffffff"
     bordercolor="#666666"
     borderopacity="1.0"
     inkscape:pageopacity="0.0"
     inkscape:pageshadow="2"
     inkscape:zoom="5.6"
     inkscape:cx="61.425305"
     inkscape:cy="7.6371835"
     inkscape:document-units="mm"
     inkscape:current-layer="layer1"
     showgrid="false"
     inkscape:snap-intersection-paths="true"
     inkscape:object-paths="true"
     inkscape:snap-midpoints="true"
     inkscape:snap-smooth-nodes="true"
     inkscape:snap-bbox="true"
     inkscape:bbox-paths="true"
     inkscape:snap-bbox-edge-midpoints="true"
     inkscape:bbox-nodes="true"
     inkscape:snap-bbox-midpoints="true"
     inkscape:window-width="1920"
     inkscape:window-height="1178"
     inkscape:window-x="0"
     inkscape:window-y="18"
     inkscape:window-maximized="0"
     inkscape:snap-global="false"
     fit-margin-top="0"
     fit-margin-left="0"
     fit-margin-right="0"
     fit-margin-bottom="0" />
  <metadata
     id="metadata989">
    <rdf:RDF>
      <cc:Work
         rdf:about="">
        <dc:format>image/svg+xml</dc:format>
        <dc:type
           rdf:resource="http://purl.org/dc/dcmitype/StillImage" />
        <dc:title></dc:title>
      </cc:Work>
    </rdf:RDF>
  </metadata>
  <g
     inkscape:label="Layer 1"
     inkscape:groupmode="layer"
     id="layer1"
     transform="translate(-27.396981,-68.11881)">
    <path
       style="font-style:normal;font-weight:normal;font-size:10.58333302px;line-height:1.25;font-family:sans-serif;letter-spacing:0px;word-spacing:0px;fill:#000000;fill-opacity:1;stroke:none;stroke-width:0.26458332"
       d="m 29.588062,68.152401 v 0.780314 c -0.861092,0 -1.264873,0.631568 -1.271241,1.369425 v 2.954417 c 0,0.359748 -0.197602,0.67327 -0.45992,0.67327 -0.262318,0 -0.45992,-0.330696 -0.45992,-0.67327 V 70.23496 c 0,-1.391855 0.87978,-2.082559 2.191081,-2.082559 z m -2e-6,0 v 0.780314 c 0.861092,0 1.264873,0.631568 1.271241,1.369425 v 2.954417 c 0,0.359748 0.197602,0.67327 0.45992,0.67327 0.262318,0 0.45992,-0.330696 0.45992,-0.67327 V 70.23496 c 0,-1.391855 -0.87978,-2.082559 -2.191081,-2.082559 z"
       id="path1567-0-1"
       inkscape:connector-curvature="0"
       inkscape:path-effect="#path-effect1573-7-6"
       inkscape:original-d="m 29.588062,68.152401 v 0.780314 c -0.861092,0 -1.264873,0.631568 -1.271241,1.369425 0,0 0,2.594669 0,2.954417 0,0.359748 -0.197602,0.67327 -0.45992,0.67327 -0.262318,0 -0.45992,-0.330696 -0.45992,-0.67327 V 70.23496 c 0,-1.391855 0.87978,-2.082559 2.191081,-2.082559 z"
       sodipodi:nodetypes="ccczzscc" />
    <path
       style="font-style:normal;font-weight:normal;font-size:10.58333302px;line-height:1.25;font-family:sans-serif;letter-spacing:0px;word-spacing:0px;fill:#000000;fill-opacity:1;stroke:none;stroke-width:0.26458332"
       d="m 48.968099,73.929827 v -0.780314 c -0.861092,0 -1.264873,-0.631568 -1.271241,-1.369425 v -2.954417 c 0,-0.359748 -0.197602,-0.67327 -0.45992,-0.67327 -0.262318,0 -0.45992,0.330696 -0.45992,0.67327 v 3.021597 c 0,1.391855 0.87978,2.082559 2.191081,2.082559 z m 0,0 v -0.780314 c 0.861092,0 1.264873,-0.631568 1.271241,-1.369425 v -2.954417 c 0,-0.359748 0.197602,-0.67327 0.45992,-0.67327 0.262318,0 0.45992,0.330696 0.45992,0.67327 v 3.021597 c 0,1.391855 -0.87978,2.082559 -2.191081,2.082559 z"
       id="path1567-0-2"
       inkscape:connector-curvature="0"
       inkscape:path-effect="#path-effect1573-7-3"
       inkscape:original-d="m 48.968099,73.929827 v -0.780314 c -0.861092,0 -1.264873,-0.631568 -1.271241,-1.369425 0,0 0,-2.594669 0,-2.954417 0,-0.359748 -0.197602,-0.67327 -0.45992,-0.67327 -0.262318,0 -0.45992,0.330696 -0.45992,0.67327 v 3.021597 c 0,1.391855 0.87978,2.082559 2.191081,2.082559 z"
       sodipodi:nodetypes="ccczzscc" />
    <g
       id="g2144"
       transform="translate(0.12699567,0.037285)"
       style="fill:#000000;fill-opacity:1;stroke:none">
      <path
         sodipodi:nodetypes="ccczzscc"
         inkscape:original-d="m 54.097844,68.081525 v 0.780314 c -0.861092,0 -1.264873,0.631568 -1.271241,1.369425 0,0 0,2.594669 0,2.954416 0,0.359749 -0.197602,0.673271 -0.45992,0.673271 -0.262318,0 -0.45992,-0.330696 -0.45992,-0.673271 v -3.021596 c 0,-1.391855 0.87978,-2.082559 2.191081,-2.082559 z"
         inkscape:path-effect="#path-effect1573-7-6-06"
         inkscape:connector-curvature="0"
         id="path1567-0-1-1"
         d="m 54.097844,68.081525 v 0.780314 c -0.861092,0 -1.264873,0.631568 -1.271241,1.369425 v 2.954416 c 0,0.359749 -0.197602,0.673271 -0.45992,0.673271 -0.262318,0 -0.45992,-0.330696 -0.45992,-0.673271 v -3.021596 c 0,-1.391855 0.87978,-2.082559 2.191081,-2.082559 z m -4e-6,0 v 0.780314 c 0.861092,0 1.264873,0.631568 1.271241,1.369425 v 2.954416 c 0,0.359749 0.197602,0.673271 0.45992,0.673271 0.262318,0 0.45992,-0.330696 0.45992,-0.673271 v -3.021596 c 0,-1.391855 -0.87978,-2.082559 -2.191081,-2.082559 z"
         style="font-style:normal;font-weight:normal;font-size:10.58333302px;line-height:1.25;font-family:sans-serif;letter-spacing:0px;word-spacing:0px;fill:#000000;fill-opacity:1;stroke:none;stroke-width:0.26458332" />
      <path
         sodipodi:nodetypes="ccczzscc"
         inkscape:original-d="m 57.560162,68.115115 v 0.780314 c -0.861092,0 -1.264873,0.631568 -1.271241,1.369425 0,0 0,2.59467 0,2.954417 0,0.359749 -0.197602,0.673271 -0.45992,0.673271 -0.262318,0 -0.45992,-0.330697 -0.45992,-0.673271 v -3.021597 c 0,-1.391855 0.87978,-2.082559 2.191081,-2.082559 z"
         inkscape:path-effect="#path-effect1573-7-6-5"
         inkscape:connector-curvature="0"
         id="path1567-0-1-5"
         d="m 57.560162,68.115115 v 0.780314 c -0.861092,0 -1.264873,0.631568 -1.271241,1.369425 v 2.954417 c 0,0.359749 -0.197602,0.673271 -0.45992,0.673271 -0.262318,0 -0.45992,-0.330697 -0.45992,-0.673271 v -3.021597 c 0,-1.391855 0.87978,-2.082559 2.191081,-2.082559 z m -4e-6,0 v 0.780314 c 0.861092,0 1.264873,0.631568 1.271241,1.369425 v 2.954417 c 0,0.359749 0.197602,0.673271 0.45992,0.673271 0.262318,0 0.45992,-0.330697 0.45992,-0.673271 v -3.021597 c 0,-1.391855 -0.87978,-2.082559 -2.191081,-2.082559 z"
         style="font-style:normal;font-weight:normal;font-size:10.58333302px;line-height:1.25;font-family:sans-serif;letter-spacing:0px;word-spacing:0px;fill:#000000;fill-opacity:1;stroke:none;stroke-width:0.26458332" />
    </g>
    <path
       style="fill:#000000;fill-opacity:1;stroke:none;stroke-width:0.16060731px;stroke-linecap:butt;stroke-linejoin:miter;stroke-opacity:1"
       d="m 38.37038,68.152401 c -0.293154,0 -0.45992,0.318105 -0.45992,0.673306 v 2.215467 h 0.45992 z m 0,0 c 0.293154,0 0.45992,0.318105 0.45992,0.673306 v 2.215467 h -0.45992 z m 0.01367,5.777421 c -0.293151,0.0014 -0.46142,-0.315925 -0.463101,-0.671122 l -0.01048,-2.215442 0.459915,-0.0022 z m 0,0 c 0.293151,-0.0014 0.45841,-0.320277 0.456729,-0.675474 l -0.01048,-2.215442 -0.459915,0.0022 z"
       id="path1876"
       inkscape:connector-curvature="0"
       sodipodi:nodetypes="csccc"
       inkscape:path-effect="#path-effect1878;#path-effect1894"
       inkscape:original-d="m 38.37038,68.152401 c -0.293154,0 -0.45992,0.318105 -0.45992,0.673306 v 2.215467 h 0.45992 z" />
    <path
       style="font-style:normal;font-weight:normal;font-size:10.58333302px;line-height:1.25;font-family:sans-serif;letter-spacing:0px;word-spacing:0px;fill:#000000;fill-opacity:1;stroke:none;stroke-width:0.26458332"
       d="m 34.844801,73.929827 v -0.780314 c -0.861092,0 -1.264873,-0.631568 -1.271241,-1.369425 v -2.954416 c 0,-0.359749 -0.197602,-0.673271 -0.45992,-0.673271 -0.262318,0 -0.45992,0.330696 -0.45992,0.673271 v 3.021596 c 0,1.391855 0.87978,2.082559 2.191081,2.082559 z m 0,0 v -0.780314 c 0.861092,0 1.264873,-0.631568 1.271241,-1.369425 v -2.954416 c 0,-0.359749 0.197602,-0.673271 0.45992,-0.673271 0.262318,0 0.45992,0.330696 0.45992,0.673271 v 3.021596 c 0,1.391855 -0.87978,2.082559 -2.191081,2.082559 z"
       id="path1567-0-1-8"
       inkscape:connector-curvature="0"
       inkscape:path-effect="#path-effect1573-7-6-6"
       inkscape:original-d="m 34.844801,73.929827 v -0.780314 c -0.861092,0 -1.264873,-0.631568 -1.271241,-1.369425 0,0 0,-2.594669 0,-2.954416 0,-0.359749 -0.197602,-0.673271 -0.45992,-0.673271 -0.262318,0 -0.45992,0.330696 -0.45992,0.673271 v 3.021596 c 0,1.391855 0.87978,2.082559 2.191081,2.082559 z"
       sodipodi:nodetypes="ccczzscc" />
    <path
       style="fill:#000000;fill-opacity:1;stroke:none;stroke-width:0.16060731px;stroke-linecap:butt;stroke-linejoin:miter;stroke-opacity:1"
       d="m 40.175289,68.152401 c -0.293154,0 -0.45992,0.318105 -0.45992,0.673306 v 2.215467 h 0.45992 z m 0,0 c 0.293154,0 0.45992,0.318105 0.45992,0.673306 v 2.215467 h -0.45992 z m 0.01367,5.777421 c -0.293151,0.0014 -0.46142,-0.315925 -0.463101,-0.671122 l -0.01048,-2.215442 0.459915,-0.0022 z m 0,0 c 0.293151,-0.0014 0.45841,-0.320277 0.456729,-0.675474 l -0.01048,-2.215442 -0.459915,0.0022 z"
       id="path2732"
       inkscape:connector-curvature="0"
       sodipodi:nodetypes="csccc"
       inkscape:path-effect="#path-effect2734;#path-effect2736"
       inkscape:original-d="m 40.175289,68.152401 c -0.293154,0 -0.45992,0.318105 -0.45992,0.673306 v 2.215467 h 0.45992 z" />
    <text
       xml:space="preserve"
       style="font-style:normal;font-variant:normal;font-weight:normal;font-stretch:normal;font-size:10.58333302px;line-height:1.25;font-family:'Noto Sans';-inkscape-font-specification:'Noto Sans';letter-spacing:0px;word-spacing:0px;fill:#000000;fill-opacity:1;stroke:none;stroke-width:0.26458332"
       x="55.349888"
       y="59.938057"
       id="text2863"><tspan
         sodipodi:role="line"
         id="tspan2861"
         x="55.349888"
         y="69.567505"
         style="font-style:normal;font-variant:normal;font-weight:normal;font-stretch:normal;font-family:'Noto Sans';-inkscape-font-specification:'Noto Sans';fill:#000000;fill-opacity:1;stroke:none;stroke-width:0.26458332" /></text>
    <text
       xml:space="preserve"
       style="font-style:normal;font-variant:normal;font-weight:normal;font-stretch:normal;font-size:10.58333302px;line-height:1.25;font-family:'Noto Sans';-inkscape-font-specification:'Noto Sans';letter-spacing:0px;word-spacing:0px;fill:#000000;fill-opacity:1;stroke:none;stroke-width:0.26458332"
       x="42.529263"
       y="65.344131"
       id="text2914"><tspan
         sodipodi:role="line"
         id="tspan2912"
         x="42.529263"
         y="74.973579"
         style="font-style:normal;font-variant:normal;font-weight:normal;font-stretch:normal;font-family:'Noto Sans';-inkscape-font-specification:'Noto Sans';fill:#000000;fill-opacity:1;stroke:none;stroke-width:0.26458332" /></text>
    <path
       style="font-style:normal;font-weight:normal;font-size:10.58333302px;line-height:1.25;font-family:sans-serif;letter-spacing:0px;word-spacing:0px;fill:#000000;fill-opacity:1;stroke:none;stroke-width:0.26654854"
       d="m 41.520278,69.648468 c 0,0.822131 0.501008,1.488449 1.716437,1.707571 l 0.951468,-0.629747 c -0.956094,-0.210867 -1.738218,-0.408059 -1.738182,-1.027278 3.1e-5,-0.551568 0.604413,-0.564042 0.604413,-0.564042 h 2.288875 c 0.27666,0 0.480781,-0.252911 0.480781,-0.491288 0,-0.238377 -0.162098,-0.491289 -0.480781,-0.491289 h -2.288875 c -1.166531,0 -1.534136,1.020441 -1.534136,1.496166 z m 4.382162,2.785286 c 0,-0.822131 -0.501008,-1.488449 -1.716437,-1.707571 l -0.951468,0.629747 c 0.956094,0.210867 1.738218,0.408059 1.738182,1.027278 -3.1e-5,0.551568 -0.604413,0.564042 -0.604413,0.564042 h -2.288875 c -0.27666,0 -0.480781,0.252911 -0.480781,0.491288 0,0.238377 0.162098,0.491289 0.480781,0.491289 h 2.288875 c 1.166531,0 1.534136,-1.020441 1.534136,-1.496166 z"
       id="path1565-9-3-2"
       inkscape:connector-curvature="0"
       sodipodi:nodetypes="cccscszcszc"
       inkscape:path-effect="#path-effect2939-8"
       inkscape:original-d="m 41.520278,69.648468 c 0,0.822131 0.501008,1.488449 1.716437,1.707571 l 0.951468,-0.629747 c -0.956094,-0.210867 -1.738218,-0.408059 -1.738182,-1.027278 3.1e-5,-0.551568 0.604413,-0.564042 0.604413,-0.564042 h 2.288875 c 0.27666,0 0.480781,-0.252911 0.480781,-0.491288 0,-0.238377 -0.162098,-0.491289 -0.480781,-0.491289 h -2.288875 c -1.166531,0 -1.534136,1.020441 -1.534136,1.496166 z" />
  </g>
</svg>
