<svg xmlns="http://www.w3.org/2000/svg" width="122.764" height="21.963" viewBox="0 0 32.481 5.811"><path style="line-height:1.25" d="M2.191.034v.78C1.33.814.926 1.445.92 2.184v2.954c0 .36-.198.673-.46.673S0 5.481 0 5.138V2.116C0 .724.88.034 2.191.034zm0 0v.78c.861 0 1.265.631 1.271 1.37v2.954c0 .36.198.673.46.673.263 0 .46-.33.46-.673V2.116c0-1.392-.88-2.082-2.19-2.082zM21.571 5.811v-.78c-.861 0-1.265-.632-1.271-1.37V.707c0-.36-.198-.673-.46-.673s-.46.33-.46.673v3.021c0 1.392.88 2.083 2.191 2.083zm0 0v-.78c.861 0 1.265-.632 1.271-1.37V.707c0-.36.198-.673.46-.673.263 0 .46.33.46.673v3.021c0 1.392-.88 2.083-2.19 2.083z" font-weight="400" font-size="10.583" font-family="sans-serif" letter-spacing="0" word-spacing="0"/><g font-weight="400" font-size="10.583" font-family="sans-serif" letter-spacing="0" word-spacing="0"><path d="M26.828 0v.78c-.861 0-1.265.632-1.271 1.37v2.954c0 .36-.198.673-.46.673-.263 0-.46-.33-.46-.673V2.083c0-1.392.88-2.083 2.19-2.083zm0 0v.78c.86 0 1.265.632 1.271 1.37v2.954c0 .36.198.673.46.673s.46-.33.46-.673V2.083C29.019.69 28.139 0 26.828 0z" style="line-height:1.25"/><path d="M30.29.034v.78c-.86 0-1.265.631-1.271 1.37v2.954c0 .36-.198.673-.46.673s-.46-.33-.46-.673V2.116c0-1.392.88-2.082 2.191-2.082zm0 0v.78c.861 0 1.265.631 1.271 1.37v2.954c0 .36.198.673.46.673.263 0 .46-.33.46-.673V2.116c0-1.392-.88-2.082-2.19-2.082z" style="line-height:1.25"/></g><path d="M10.973.034c-.293 0-.46.318-.46.673v2.215h.46zm0 0c.294 0 .46.318.46.673v2.215h-.46zm.014 5.777c-.293.001-.461-.316-.463-.671l-.01-2.216.46-.002zm0 0c.293-.001.458-.32.457-.675l-.01-2.216-.46.002z"/><path style="line-height:1.25" d="M7.448 5.811v-.78c-.861 0-1.265-.632-1.271-1.37V.707c0-.36-.198-.673-.46-.673-.263 0-.46.33-.46.673v3.021c0 1.392.88 2.083 2.19 2.083zm0 0v-.78c.86 0 1.265-.632 1.271-1.37V.707c0-.36.198-.673.46-.673s.46.33.46.673v3.021c0 1.392-.88 2.083-2.191 2.083z" font-weight="400" font-size="10.583" font-family="sans-serif" letter-spacing="0" word-spacing="0"/><path d="M12.778.034c-.293 0-.46.318-.46.673v2.215h.46zm0 0c.293 0 .46.318.46.673v2.215h-.46zm.014 5.777c-.293.001-.461-.316-.463-.671l-.01-2.216.46-.002zm0 0c.293-.001.458-.32.457-.675l-.01-2.216-.46.002z"/><text style="line-height:1.25;-inkscape-font-specification:'Noto Sans'" x="55.35" y="59.938" font-weight="400" font-size="10.583" font-family="Noto Sans" letter-spacing="0" word-spacing="0" stroke-width=".265" transform="translate(-27.397 -68.119)"/><text style="line-height:1.25;-inkscape-font-specification:'Noto Sans'" x="42.529" y="65.344" font-weight="400" font-size="10.583" font-family="Noto Sans" letter-spacing="0" word-spacing="0" stroke-width=".265" transform="translate(-27.397 -68.119)"/><path style="line-height:1.25" d="M14.123 1.53c0 .822.501 1.488 1.717 1.707l.951-.63c-.956-.21-1.738-.408-1.738-1.027 0-.551.604-.564.604-.564h2.29c.276 0 .48-.253.48-.491 0-.239-.162-.491-.48-.491h-2.29c-1.166 0-1.534 1.02-1.534 1.496zm4.382 2.785c0-.822-.5-1.489-1.716-1.708l-.951.63c.956.211 1.738.408 1.738 1.027 0 .552-.605.564-.605.564h-2.289c-.276 0-.48.253-.48.492 0 .238.162.491.48.491h2.29c1.166 0 1.533-1.02 1.533-1.496z" font-weight="400" font-size="10.583" font-family="sans-serif" letter-spacing="0" word-spacing="0"/></svg>